<svg version="1.1" xmlns="http://www.w3.org/2000/svg" width="400" height="400" viewBox="-10 -10 116 111">
  <clipPath id="clip">
    <path d="M0,0h7.75a45.5,45.5 0 1 1 0,91h-7.75v-20h7.75a25.5,25.5 0 1 0 0,-51h-7.75zm36.2510,0h32a27.75,27.75 0 0 1 21.331,45.5a27.75,27.75 0 0 1 -21.331,45.5h-32a53.6895,53.6895 0 0 0 18.7464,-20h13.2526a7.75,7.75 0 1 0 0,-15.5h-7.75a53.6895,53.6895 0 0 0 0,-20h7.75a7.75,7.75 0 1 0 0,-15.5h-13.2526a53.6895,53.6895 0 0 0 -18.7464,-20z"/>
  </clipPath>
  <g clip-path="url(#clip)">
    <path
      d="M-100,-102m-28,0v300h300z"
      fill="#859900"
    />
    <path
      d="M-100,-102m28,0h300v300z"
      fill="#2aa198"
    />
    <path
      d="M-100,-102l300,300"
      fill="none"
      stroke="#6c71c4"
      stroke-width="40"
    />
  </g>
</svg>
